<svg width="12" height="16" viewBox="0 0 12 16" fill="none" xmlns="http://www.w3.org/2000/svg">
<path fill-rule="evenodd" clip-rule="evenodd" d="M4.22475 1.60524C4.15572 1.69153 4.1 1.82943 4.1 2V3.5H7.9V2C7.9 1.82943 7.84428 1.69153 7.77525 1.60524C7.70696 1.51987 7.64181 1.5 7.6 1.5H4.4C4.35819 1.5 4.29304 1.51987 4.22475 1.60524ZM3.1 2C3.1 1.28146 3.58368 0.5 4.4 0.5H7.6C8.41632 0.5 8.9 1.28145 8.9 2V3.5H12V4.5H11.3V14C11.3 14.7185 10.8163 15.5 10 15.5H2C1.18368 15.5 0.7 14.7185 0.7 14V4.5H0V3.5H3.1V2ZM1.7 4.5V14C1.7 14.1706 1.75572 14.3085 1.82475 14.3948C1.89304 14.4801 1.95818 14.5 2 14.5H10C10.0418 14.5 10.107 14.4801 10.1753 14.3948C10.2443 14.3085 10.3 14.1706 10.3 14V4.5H1.7ZM5.5 12.5V7.5H6.5V12.5H5.5ZM3.1 12.5V9.5H4.1V12.5H3.1ZM7.9 12.5V9.5H8.9V12.5H7.9Z" fill="black"/>
</svg>
