<svg width="16" height="14" viewBox="0 0 16 14" fill="none" xmlns="http://www.w3.org/2000/svg">
<path fill-rule="evenodd" clip-rule="evenodd" d="M5.85145 1.9C5.04379 1.9 4.29531 2.32364 3.87957 3.01609L1.96666 6.20216V11.6667C1.96666 11.906 2.16067 12.1 2.39999 12.1H3.33333C3.57265 12.1 3.76666 11.906 3.76666 11.6667V10.2333H12.2333V11.6667C12.2333 11.906 12.4273 12.1 12.6667 12.1H13.6C13.8393 12.1 14.0333 11.906 14.0333 11.6667V6.20216L12.1204 3.01609C11.7047 2.32364 10.9562 1.9 10.1485 1.9H5.85145ZM3.02222 2.50134C3.61872 1.50783 4.69263 0.900002 5.85145 0.900002H10.1485C11.3074 0.900002 12.3813 1.50783 12.9778 2.50134L15.0333 5.92502V11.6667C15.0333 12.4583 14.3916 13.1 13.6 13.1H12.6667C11.8751 13.1 11.2333 12.4583 11.2333 11.6667V11.2333H4.76666V11.6667C4.76666 12.4583 4.12493 13.1 3.33333 13.1H2.39999C1.60838 13.1 0.96666 12.4583 0.96666 11.6667V5.92502L3.02222 2.50134ZM12.2 6.56667H3.79999V5.56667H12.2V6.56667ZM5.66666 9.36667H2.86666V8.36667H5.66666V9.36667ZM10.3333 8.36667H13.1333V9.36667H10.3333V8.36667Z" fill="#808080"/>
</svg>
