<svg width="16" height="16" viewBox="0 0 16 16" fill="none" xmlns="http://www.w3.org/2000/svg">
<path fill-rule="evenodd" clip-rule="evenodd" d="M0.25 7C0.25 3.27208 3.27208 0.25 7 0.25C10.7279 0.25 13.75 3.27208 13.75 7C13.75 8.59376 13.1976 10.0585 12.2739 11.2133L15.5303 14.4697L14.4697 15.5303L11.2133 12.2739C10.0585 13.1976 8.59376 13.75 7 13.75C3.27208 13.75 0.25 10.7279 0.25 7ZM7 1.75C4.10051 1.75 1.75 4.10051 1.75 7C1.75 9.8995 4.10051 12.25 7 12.25C9.8995 12.25 12.25 9.8995 12.25 7C12.25 4.10051 9.8995 1.75 7 1.75Z" fill="#9B9B9B"/>
</svg>
