<svg width="11" height="13" viewBox="0 0 11 13" fill="none" xmlns="http://www.w3.org/2000/svg">
<path d="M5.5 0C2.97993 0 0.929688 2.05024 0.929688 4.57031C0.929688 5.42176 1.16554 6.2527 1.61191 6.97359L5.23985 12.82C5.30934 12.932 5.43178 13 5.56345 13C5.56447 13 5.56546 13 5.56647 13C5.69929 12.999 5.82198 12.9288 5.8902 12.8149L9.42567 6.91184C9.84741 6.20618 10.0703 5.3965 10.0703 4.57031C10.0703 2.05024 8.02007 0 5.5 0ZM8.77199 6.52077L5.55769 11.8875L2.25932 6.57226C1.88778 5.97223 1.68633 5.27998 1.68633 4.57031C1.68633 2.47025 3.39994 0.756641 5.5 0.756641C7.60006 0.756641 9.31113 2.47025 9.31113 4.57031C9.31113 5.25893 9.12296 5.93348 8.77199 6.52077Z" fill="#9B9B9B"/>
<path d="M5.5 2.28516C4.23996 2.28516 3.21484 3.31028 3.21484 4.57031C3.21484 5.8223 4.22328 6.85547 5.5 6.85547C6.79246 6.85547 7.78516 5.80854 7.78516 4.57031C7.78516 3.31028 6.76004 2.28516 5.5 2.28516ZM5.5 6.09883C4.65558 6.09883 3.97148 5.41244 3.97148 4.57031C3.97148 3.73029 4.65998 3.0418 5.5 3.0418C6.34002 3.0418 7.02598 3.73029 7.02598 4.57031C7.02598 5.40015 6.3578 6.09883 5.5 6.09883Z" fill="#9B9B9B"/>
</svg>
