<svg width="15" height="15" viewBox="0 0 15 15" fill="none" xmlns="http://www.w3.org/2000/svg">
<path fill-rule="evenodd" clip-rule="evenodd" d="M14.3536 0.646446C14.4981 0.791016 14.5401 1.00904 14.4596 1.19696L8.88815 14.197C8.81418 14.3695 8.64977 14.4861 8.46243 14.4989C8.2751 14.5116 8.09643 14.4183 7.99983 14.2572L5.27843 9.72158L0.742756 7.00017C0.58175 6.90357 0.488438 6.72491 0.501152 6.53757C0.513866 6.35024 0.630462 6.18582 0.803045 6.11186L13.803 0.540427C13.991 0.459889 14.209 0.501876 14.3536 0.646446ZM6.27246 9.43465L8.35421 12.9042L12.5177 3.18941L6.27246 9.43465ZM11.8106 2.4823L2.09578 6.6458L5.56535 8.72754L11.8106 2.4823Z" fill="black"/>
</svg>
