<svg width="14" height="16" viewBox="0 0 14 16" fill="none" xmlns="http://www.w3.org/2000/svg">
<path fill-rule="evenodd" clip-rule="evenodd" d="M2 1.5C1.72386 1.5 1.5 1.72386 1.5 2V5.5H0.5V2C0.5 1.17157 1.17157 0.5 2 0.5H10.2071L13.5 3.79289V5.5H12.5V4.20711L9.79289 1.5H2ZM1.5 6.5H3C3.82843 6.5 4.5 7.17157 4.5 8C4.5 8.82843 3.82843 9.5 3 9.5H2.5V11.5H1.5V6.5ZM2.5 8.5H3C3.27614 8.5 3.5 8.27614 3.5 8C3.5 7.72386 3.27614 7.5 3 7.5H2.5V8.5ZM5.5 6.5H7C7.82843 6.5 8.5 7.17157 8.5 8V10C8.5 10.8284 7.82843 11.5 7 11.5H5.5V6.5ZM6.5 7.5V10.5H7C7.27614 10.5 7.5 10.2761 7.5 10V8C7.5 7.72386 7.27614 7.5 7 7.5H6.5ZM9.5 6.5H12.5V7.5H10.5V8.5H11.5V9.5H10.5V11.5H9.5V6.5ZM0.5 14V12.5H1.5V14C1.5 14.2761 1.72386 14.5 2 14.5H12C12.2761 14.5 12.5 14.2761 12.5 14V12.5H13.5V14C13.5 14.8284 12.8284 15.5 12 15.5H2C1.17157 15.5 0.5 14.8284 0.5 14Z" fill="black"/>
</svg>
